<svg width="51" height="50" viewBox="0 0 51 50" fill="none" xmlns="http://www.w3.org/2000/svg">
<path d="M0 0H32.8392C37.417 0.00787349 41.805 1.82701 45.042 5.05888C48.279 8.29075 50.101 12.6719 50.1089 17.2424V37.8638H37.9535V17.2424C37.9457 15.8907 37.4043 14.5967 36.4468 13.6411C35.4893 12.6855 34.193 12.1455 32.8392 12.1382H0V0Z" fill="#898989"/>
<path d="M50.1089 50.0005H17.1961C12.896 49.9909 8.75343 48.3839 5.57478 45.4925C2.39613 42.601 0.408909 38.6321 0 34.3582L0 12.1387H12.0818V32.7581C12.0901 34.1098 12.6317 35.4037 13.589 36.3595C14.5463 37.3153 15.8423 37.856 17.1961 37.8643H50.1089V50.0005Z" fill="#33C5F3"/>
</svg>
