<svg width="98" height="50" viewBox="0 0 98 50" fill="none" xmlns="http://www.w3.org/2000/svg">
<path d="M72.4375 0C65.8095 0.00785676 59.4552 2.6443 54.7685 7.33101C50.0818 12.0177 47.4454 18.372 47.4375 25V35.9375H3.6875V31.25C3.6875 30.8356 3.52288 30.4382 3.22985 30.1451C2.93683 29.8521 2.5394 29.6875 2.125 29.6875C1.7106 29.6875 1.31317 29.8521 1.02015 30.1451C0.72712 30.4382 0.5625 30.8356 0.5625 31.25V48.4375C0.5625 48.8519 0.72712 49.2493 1.02015 49.5424C1.31317 49.8354 1.7106 50 2.125 50H72.4375C79.0679 50 85.4268 47.3661 90.1152 42.6777C94.8036 37.9893 97.4375 31.6304 97.4375 25C97.4375 18.3696 94.8036 12.0107 90.1152 7.32233C85.4268 2.63392 79.0679 0 72.4375 0ZM3.6875 39.0625H8.375V42.1875C8.375 42.6019 8.53962 42.9993 8.83265 43.2924C9.12567 43.5854 9.5231 43.75 9.9375 43.75C10.3519 43.75 10.7493 43.5854 11.0424 43.2924C11.3354 42.9993 11.5 42.6019 11.5 42.1875V39.0625H16.1875V40.625C16.1875 41.0394 16.3521 41.4368 16.6451 41.7299C16.9382 42.0229 17.3356 42.1875 17.75 42.1875C18.1644 42.1875 18.5618 42.0229 18.8549 41.7299C19.1479 41.4368 19.3125 41.0394 19.3125 40.625V39.0625H24V42.1875C24 42.6019 24.1646 42.9993 24.4576 43.2924C24.7507 43.5854 25.1481 43.75 25.5625 43.75C25.9769 43.75 26.3743 43.5854 26.6674 43.2924C26.9604 42.9993 27.125 42.6019 27.125 42.1875V39.0625H31.8125V40.625C31.8125 41.0394 31.9771 41.4368 32.2701 41.7299C32.5632 42.0229 32.9606 42.1875 33.375 42.1875C33.7894 42.1875 34.1868 42.0229 34.4799 41.7299C34.7729 41.4368 34.9375 41.0394 34.9375 40.625V39.0625H39.625V42.1875C39.625 42.6019 39.7896 42.9993 40.0826 43.2924C40.3757 43.5854 40.7731 43.75 41.1875 43.75C41.6019 43.75 41.9993 43.5854 42.2924 43.2924C42.5854 42.9993 42.75 42.6019 42.75 42.1875V39.0625H47.4375V46.875H3.6875V39.0625ZM72.4375 46.875H50.5625V25C50.5625 20.6735 51.8454 16.4442 54.2491 12.8469C56.6528 9.24958 60.0692 6.4458 64.0663 4.79014C68.0634 3.13447 72.4618 2.70127 76.7051 3.54532C80.9484 4.38937 84.8462 6.47277 87.9055 9.53204C90.9647 12.5913 93.0481 16.4891 93.8922 20.7324C94.7362 24.9757 94.303 29.3741 92.6474 33.3712C90.9917 37.3683 88.1879 40.7847 84.5906 43.1884C80.9933 45.5921 76.764 46.875 72.4375 46.875Z" fill="white"/>
<path d="M72.4375 12.5C69.9652 12.5 67.5485 13.2331 65.4929 14.6066C63.4373 15.9801 61.8351 17.9324 60.889 20.2165C59.9429 22.5005 59.6954 25.0139 60.1777 27.4386C60.66 29.8634 61.8505 32.0907 63.5987 33.8388C65.3468 35.587 67.5741 36.7775 69.9989 37.2598C72.4236 37.7421 74.937 37.4946 77.221 36.5485C79.5051 35.6024 81.4574 34.0002 82.8309 31.9446C84.2044 29.889 84.9375 27.4723 84.9375 25C84.9338 21.6859 83.6156 18.5087 81.2722 16.1653C78.9288 13.8219 75.7516 12.5037 72.4375 12.5ZM72.4375 34.375C70.5833 34.375 68.7707 33.8252 67.229 32.795C65.6873 31.7649 64.4857 30.3007 63.7761 28.5877C63.0666 26.8746 62.8809 24.9896 63.2426 23.171C63.6044 21.3525 64.4973 19.682 65.8084 18.3709C67.1195 17.0598 68.79 16.1669 70.6085 15.8051C72.4271 15.4434 74.3121 15.6291 76.0252 16.3386C77.7382 17.0482 79.2024 18.2498 80.2325 19.7915C81.2627 21.3332 81.8125 23.1458 81.8125 25C81.81 27.4856 80.8215 29.8688 79.0639 31.6264C77.3063 33.384 74.9231 34.3725 72.4375 34.375Z" fill="white"/>
<path d="M70.875 40.625H61.5C61.0856 40.625 60.6882 40.7896 60.3951 41.0826C60.1021 41.3757 59.9375 41.7731 59.9375 42.1875C59.9375 42.6019 60.1021 42.9993 60.3951 43.2924C60.6882 43.5854 61.0856 43.75 61.5 43.75H70.875C71.2894 43.75 71.6868 43.5854 71.9799 43.2924C72.2729 42.9993 72.4375 42.6019 72.4375 42.1875C72.4375 41.7731 72.2729 41.3757 71.9799 41.0826C71.6868 40.7896 71.2894 40.625 70.875 40.625Z" fill="white"/>
<path d="M56.8125 40.625H55.25C54.8356 40.625 54.4382 40.7896 54.1451 41.0826C53.8521 41.3757 53.6875 41.7731 53.6875 42.1875C53.6875 42.6019 53.8521 42.9993 54.1451 43.2924C54.4382 43.5854 54.8356 43.75 55.25 43.75H56.8125C57.2269 43.75 57.6243 43.5854 57.9174 43.2924C58.2104 42.9993 58.375 42.6019 58.375 42.1875C58.375 41.7731 58.2104 41.3757 57.9174 41.0826C57.6243 40.7896 57.2269 40.625 56.8125 40.625Z" fill="white"/>
</svg>
